<?xml version="1.0" encoding="UTF-8"?>
<svg id="Layer_2" data-name="Layer 2" xmlns="http://www.w3.org/2000/svg" viewBox="0 0 955.19 225.81">
  <defs>
    <style>
      .cls-1 {
        fill: #78beba;
      }

      .cls-1, .cls-2, .cls-3, .cls-4, .cls-5 {
        stroke-width: 0px;
      }

      .cls-2 {
        fill: #2069af;
      }

      .cls-3 {
        fill: #d35233;
      }

      .cls-4 {
        fill: #e7b225;
      }

      .cls-5 {
        fill: #e2e3d8;
      }
    </style>
  </defs>
  <g id="Layer_1-2" data-name="Layer 1">
    <g>
      <path class="cls-2" d="m158.34,147.04c3,0,6-.03,9,0,4.24.05,7.48,2.7,7.82,7.07.53,6.97.53,13.99,0,20.96-.34,4.39-3.48,7.07-7.76,7.12-6,.07-12,.08-18,0-4.75-.06-7.92-3.37-7.97-8.3-.07-6.15-.07-12.31,0-18.47.05-5.04,3.32-8.34,8.16-8.38,2.92-.02,5.84,0,8.76,0Z"/>
      <path class="cls-3" d="m206.75,147.04c3,0,6-.04,9,0,4.53.07,7.78,3.44,7.82,8.18.05,6.24.05,12.48,0,18.72-.04,4.78-3.15,8.15-7.76,8.24-6.08.11-12.17.1-18.25,0-4.57-.07-7.79-3.42-7.87-8.18-.09-6.24-.1-12.48,0-18.72.07-4.91,3.36-8.19,8.05-8.24,3-.03,6,0,9,0Z"/>
      <path class="cls-1" d="m110.13,147.04c3,0,6-.03,9,0,4.29.06,7.59,2.94,7.74,7.4.24,6.82.23,13.66-.01,20.47-.15,4.25-3.28,7.17-7.36,7.26-6.24.13-12.49.13-18.73,0-4.39-.08-7.49-3.3-7.58-7.87-.13-6.41-.13-12.82-.02-19.22.08-4.8,3.34-7.98,7.96-8.03,3-.04,6,0,9,0Z"/>
      <path class="cls-4" d="m61.73,147.04c3.08,0,6.16-.04,9.24.01,4.3.08,7.6,3.32,7.68,7.78.11,6.49.1,12.98,0,19.47-.06,4.42-3.1,7.74-7.34,7.85-6.32.16-12.65.16-18.97,0-4.4-.1-7.37-3.45-7.4-8-.04-6.41-.05-12.81,0-19.22.04-4.49,3.21-7.79,7.53-7.88,3.08-.07,6.16-.01,9.24-.01Z"/>
      <g>
        <path class="cls-5" d="m272.23,225.81H0V1.22h272.23v224.58ZM29.36,100.3h213.51c1.29,0,2.33-1.04,2.33-2.33V32.03c0-1.29-1.04-2.33-2.33-2.33H29.36c-1.29,0-2.33,1.04-2.33,2.33v65.93c0,1.29,1.04,2.33,2.33,2.33Zm-.47,101.97h213.98c1.29,0,2.33-1.04,2.33-2.33v-70.58c0-1.29-1.04-2.33-2.33-2.33H29.36c-1.29,0-2.33,1.04-2.33,2.33v71.04c0,1.03.84,1.87,1.87,1.87Z"/>
        <path class="cls-5" d="m163.18,92.86c-5.44.02-9.78-3.59-11.01-9.21-.17-.8-.16-1.56-1.06-1.99-4.48-2.16-7.38-6.01-9.94-10.2-1.73-2.83-3.38-5.71-5.08-8.57-1.08-1.81-2.27-3.55-3.71-5.07-4.64-4.92-10.58-4.83-15.11.25-2.59,2.91-4.4,6.37-6.35,9.73-2.33,3.99-4.63,8-8.09,11.11-6.9,6.2-16.57,5.91-23.14-.63-3.29-3.28-5.58-7.28-7.89-11.28-1.5-2.6-2.97-5.21-4.78-7.6-1.08-1.43-2.3-2.68-3.77-3.68-1.52-1.02-2.6-1.38-4.05.54-3.26,4.32-8.79,5.38-13.45,3.04-4.59-2.32-7.14-7.72-6.08-12.92,1.03-5.06,5.23-8.91,10.08-9.22,5.49-.35,9.9,2.68,11.58,8.07.39,1.27.93,1.99,2.26,2.39,3.68,1.1,6.46,3.64,8.85,6.67,2.91,3.69,5.05,7.9,7.45,11.93,1.54,2.58,3.16,5.1,5.42,7.08,3.91,3.43,9.1,3.32,12.88-.27,2.36-2.23,4.06-4.98,5.7-7.79,2.32-3.99,4.5-8.07,7.44-11.64,7.61-9.24,19.39-9.34,27.12-.19,3.09,3.65,5.29,7.92,7.71,12.04,1.6,2.73,3.27,5.4,5.57,7.58,1.23,1.17,2.04,1.63,3.52-.04,3.5-3.95,9.22-4.55,13.66-1.84,4.33,2.65,6.42,8.05,5.08,13.14-1.36,5.17-5.6,8.53-10.79,8.55ZM50.7,52.94c2.03,0,3.91-1.9,3.98-4.02.07-2.23-1.83-4.28-3.97-4.29-2.02,0-3.92,1.92-3.98,4.04-.06,2.25,1.81,4.27,3.97,4.27Zm112.53,32.45c2.13-.07,4.05-2.21,3.91-4.37-.13-2.13-2.07-4-4.09-3.95-2.14.05-3.96,2.12-3.85,4.38.1,2.17,1.97,4,4.03,3.94Z"/>
        <circle class="cls-5" cx="210.95" cy="65" r="25.46"/>
        <g>
          <path class="cls-5" d="m938.13,171.66c3.02,0,6.05-.03,9.07,0,4.32.06,7.65,2.97,7.81,7.45.24,6.87.24,13.76-.01,20.63-.15,4.28-3.3,7.23-7.42,7.31-6.29.13-12.59.13-18.88,0-4.42-.08-7.55-3.33-7.64-7.94-.13-6.46-.13-12.92-.02-19.37.08-4.84,3.36-8.04,8.02-8.1,3.02-.04,6.05,0,9.07,0Z"/>
          <g>
            <path class="cls-5" d="m405.77,1.19h-79.98v20.96h48.96c3.17,0,5.75,2.57,5.75,5.75v176.95h-55.15v20.96h133.64v-20.96h-53.22V1.19Z"/>
            <path class="cls-5" d="m759.69,61.99h-63.75v-16.65c0-16.35,11.45-24.53,34.34-24.53,16.15,0,28.44.45,36.87,1.34V1.49c-7.14-.99-19.52-1.49-37.16-1.49-19.92,0-34.73,3.74-44.45,11.22-9.71,7.48-14.57,19-14.57,34.56v16.2l-67.96-.45h-6.75c-10.23,0-18.52,8.29-18.52,18.52v76.47c0,13.78-4.09,24.9-12.26,33.37-8.18,8.47-18.91,12.71-32.18,12.71-12.59,0-21.9-3.49-27.95-10.48-6.05-6.99-9.07-17.76-9.07-32.33V61.54h-25.27v104.65c0,19.32,4.63,34.09,13.9,44.3,9.27,10.21,22.67,15.31,40.21,15.31,12.29,0,22.87-2.73,31.74-8.18,8.87-5.45,15.48-13.18,19.85-23.19h2.08v28.39h24.23V83.1l67.96.45v139.29h25.27V83.54h63.45c4.12,0,7.46-3.34,7.46-7.46v-6.64c0-4.12-3.34-7.46-7.46-7.46Z"/>
            <path class="cls-5" d="m882.73,148.58c-7.38-7.08-18.9-12.41-34.56-15.98l-22.74-5.2c-10.11-2.18-17.39-5.15-21.85-8.92-4.46-3.77-6.69-8.72-6.69-14.87,0-7.33,3.07-13.2,9.22-17.62,6.14-4.41,14.32-6.61,24.53-6.61,9.41,0,17.29,2.03,23.64,6.09,6.34,4.07,10.26,9.61,11.74,16.65h24.38c-1.49-13.48-7.56-24.13-18.21-31.96-10.65-7.83-24.36-11.74-41.1-11.74-17.74,0-32.06,4.29-42.96,12.86-10.9,8.57-16.35,19.84-16.35,33.82,0,22.89,14.52,37.66,43.56,44.3l23.93,5.5c10.21,2.28,17.49,5.28,21.85,8.99,4.36,3.72,6.54,8.8,6.54,15.24,0,7.73-3.25,13.9-9.74,18.51-6.49,4.61-15.24,6.91-26.24,6.91-10.4,0-19-2.06-25.79-6.17-6.79-4.11-11.12-9.89-13.01-17.32h-25.72c1.39,13.88,7.78,24.8,19.17,32.78,11.4,7.98,26.21,11.97,44.45,11.97s34.41-4.46,45.86-13.38c11.45-8.92,17.17-20.81,17.17-35.68,0-11.69-3.69-21.08-11.08-28.17Z"/>
          </g>
        </g>
      </g>
    </g>
  </g>
</svg>